<?xml version="1.0" standalone="no"?>
<!DOCTYPE svg PUBLIC "-//W3C//DTD SVG 20010904//EN"
 "http://www.w3.org/TR/2001/REC-SVG-20010904/DTD/svg10.dtd">
<svg version="1.0" xmlns="http://www.w3.org/2000/svg"
 width="400.000000pt" height="400.000000pt" viewBox="0 0 400.000000 400.000000"
 preserveAspectRatio="xMidYMid meet">
<metadata>
Created by potrace 1.11, written by Peter Selinger 2001-2013
</metadata>
<g transform="translate(0.000000,400.000000) scale(0.100000,-0.100000)"
fill="#000000" stroke="none">
<path d="M1440 3470 l0 -210 140 0 140 0 0 210 0 210 -140 0 -140 0 0 -210z"/>
<path d="M2280 3610 l0 -70 70 0 70 0 0 -140 0 -140 -70 0 -70 0 0 70 0 70
-210 0 -210 0 0 -140 0 -140 -70 0 -70 0 0 -70 0 -70 -210 0 -210 0 0 -140 0
-140 -70 0 -70 0 0 -140 0 -140 -70 0 -70 0 0 -70 0 -70 -140 0 -140 0 0 -70
0 -70 -70 0 -70 0 0 140 0 140 -70 0 -70 0 0 -140 0 -140 70 0 70 0 0 -140 0
-140 -70 0 -70 0 0 -280 0 -280 70 0 70 0 0 -70 0 -70 70 0 70 0 0 -70 0 -70
70 0 70 0 0 -70 0 -70 70 0 70 0 0 -140 0 -140 70 0 70 0 0 -70 0 -70 140 0
140 0 0 -70 0 -70 70 0 70 0 0 -70 0 -70 140 0 140 0 0 -70 0 -70 630 0 630 0
0 70 0 70 140 0 140 0 0 70 0 70 70 0 70 0 0 70 0 70 70 0 70 0 0 70 0 70 70
0 70 0 0 280 0 280 70 0 70 0 0 280 0 280 -70 0 -70 0 0 280 0 280 -70 0 -70
0 0 70 0 70 -70 0 -70 0 0 70 0 70 -350 0 -350 0 0 70 0 70 210 0 210 0 0 70
0 70 70 0 70 0 0 210 0 210 -70 0 -70 0 0 70 0 70 -70 0 -70 0 0 70 0 70 -280
0 -280 0 0 70 0 70 -140 0 -140 0 0 -70z m-700 -1260 l0 -70 -140 0 -140 0 0
-70 0 -70 70 0 70 0 0 -210 0 -210 -70 0 -70 0 0 210 0 210 -140 0 -140 0 0
70 0 70 140 0 140 0 0 70 0 70 140 0 140 0 0 -70z"/>
<path d="M600 3050 l0 -70 70 0 70 0 0 70 0 70 -70 0 -70 0 0 -70z"/>
</g>
</svg>
